<svg viewBox="0 0 148 28" xmlns="http://www.w3.org/2000/svg" aria-label="DAEDALUS" role="img" overflow="visible">
  <!-- Partial gear arc (3 teeth, right-facing) — accent gold #c9a84c.
       Gear ring center: (3,14), outer R=13, valley R=10, arc from -65° to +65°. -->
  <path
    fill="#c9a84c"
    d="M 7.23,4.94 A 10,10 0 0,1 8.74,5.81 L 10.46,3.35 A 13,13 0 0,1 13.65,6.54 L 11.19,8.26 A 10,10 0 0,1 12.85,12.26 L 15.80,11.74 A 13,13 0 0,1 15.80,16.26 L 12.85,15.74 A 10,10 0 0,1 11.19,19.74 L 13.65,21.46 A 13,13 0 0,1 10.46,24.65 L 8.74,22.19 A 10,10 0 0,1 7.23,23.06 A 10,10 0 1,1 7.23,4.94 Z"
  />
  <!-- "DAEDALUS" wordmark — white -->
  <text x="18" y="20" font-family="'Space Grotesk', sans-serif" font-weight="700" font-size="17" letter-spacing="0.3" fill="#f0f0f0">DAEDALUS</text>
</svg>
