<svg viewBox="0 0 148 28" xmlns="http://www.w3.org/2000/svg" aria-label="DAEDALUS" role="img" overflow="visible">
  <!-- Gear body (accent gold) + hub hole via evenodd -->
  <g fill="#c9a84c" fill-rule="evenodd">
    <path d="M 26.80,11.74 L 26.80,16.26 L 23.85,15.74 L 22.19,19.74 L 24.65,21.46 L 21.46,24.65 L 19.74,22.19 L 15.74,23.85 L 16.26,26.80 L 11.74,26.80 L 12.26,23.85 L 8.26,22.19 L 6.54,24.65 L 3.35,21.46 L 5.81,19.74 L 4.15,15.74 L 1.20,16.26 L 1.20,11.74 L 4.15,12.26 L 5.81,8.26 L 3.35,6.54 L 6.54,3.35 L 8.26,5.81 L 12.26,4.15 L 11.74,1.20 L 16.26,1.20 L 15.74,4.15 L 19.74,5.81 L 21.46,3.35 L 24.65,6.54 L 22.19,8.26 L 23.85,12.26 Z M 21,14 A 7,7 0 1 0 7,14 A 7,7 0 1 0 21,14 Z"/>
  </g>
  <!-- "D" inside gear hub — white -->
  <text x="14" y="18.5" text-anchor="middle" font-family="'Space Grotesk', sans-serif" font-weight="700" font-size="11" fill="#f0f0f0">D</text>
  <!-- "AEDALUS" wordmark — white -->
  <text x="33" y="20" font-family="'Space Grotesk', sans-serif" font-weight="700" font-size="17" letter-spacing="0.5" fill="#f0f0f0">AEDALUS</text>
</svg>
